<?xml version="1.0" standalone="no"?><!DOCTYPE svg PUBLIC "-//W3C//DTD SVG 1.1//EN" "http://www.w3.org/Graphics/SVG/1.1/DTD/svg11.dtd">
<svg t="1712109901721" class="icon" viewBox="0 0 1024 1024" version="1.1" xmlns="http://www.w3.org/2000/svg" p-id="5211" xmlns:xlink="http://www.w3.org/1999/xlink" width="200" height="200">
    <path d="M512 0c281.6 0 512 230.4 512 512s-230.4 512-512 512-512-230.4-512-512 230.4-512 512-512z m0 960c249.6 0 448-198.4 448-448s-198.4-448-448-448-448 198.4-448 448 198.4 448 448 448z" fill="#777777" p-id="5212"></path>
    <path d="M588.8 262.4c6.4-6.4 32-6.4 44.8 0 6.4 12.8 6.4 38.4 0 44.8L428.8 512l204.8 204.8c12.8 12.8 12.8 32 0 44.8-12.8 12.8-32 12.8-44.8 0L364.8 537.6c-12.8-12.8-12.8-32 0-44.8l224-230.4z" fill="#777777" p-id="5213"></path>
</svg>